# xmcd
#
# Track frame offsets:
#	150
#	14086
#	27376
#	41898
#	57771
#	77381
#	92880
#	109243
#	127680
#	144818
#	162233
#	179805
#	194890
#	210875
#	223684
#	241043
#	260258
#	279454
#	296222
#
# Disc length: 4333
#
# Revision: 1
# Processed by: cddbd v1.5.1PL0 Copyright (c) Steve Scherf et al.
# Submitted via: VisiTrax 2.9.5.180 - For more info visit www.synapsa.com
# Normalized: r0:DSETVAR1
#
DISCID=1710eb13
DTITLE=Various Artist - CDX 256 January 2001
DYEAR=2001
DGENRE=
TTITLE0=Meredith Edwards - A rose is a rose
TTITLE1=Jolie and The Wanted - Boom
TTITLE2=Eddy Raven - Cowboys don't cr
TTITLE3=Kortney Kayle - Don't let me down
TTITLE4=Soggy Bottom Boys - I am a man of constant sorrow
TTITLE5=Hank Williams III - I don't know
TTITLE6=Ty England - I drove her to Dallas
TTITLE7=Travis Tritt - It's a great day to be alive
TTITLE8=Lisa Angelle - I will love you
TTITLE9=Hal Ketchum - She is
TTITLE10=Vince Gill - Shoot straight from your heart
TTITLE11=Clay Davidson - Sometimes
TTITLE12=South 65 - The most beautiful girl
TTITLE13=Kenny Rogers - There you go again
TTITLE14=Stella Parton - Up in the holler
TTITLE15=Sons of the Desert - What I did right
TTITLE16=Michael Chain - Shadow dancers
TTITLE17=Laura Pursell - What only love can do
TTITLE18=Eddy Arnold - Interview
EXTD=
EXTT0=
EXTT1=
EXTT2=
EXTT3=
EXTT4=
EXTT5=
EXTT6=
EXTT7=
EXTT8=
EXTT9=
EXTT10=
EXTT11=
EXTT12=
EXTT13=
EXTT14=
EXTT15=
EXTT16=
EXTT17=
EXTT18=
PLAYORDER=
